http://kickass.to/d-w-griffith-intolerance-1916-dvdrip-xvid-t2655659.html
Download D.W.Griffith -- Intolerance (1916) DVDRip.XviD Torrent - KickassTorrents
login / register
Community
blog
FAQ
Browse
latest
Search
Advanced search 0
0
report fake
D.W.Griffith -- Intolerance (1916) DVDRip.XviD
seeders: 1
leechers: 0
Download torrent
Added on Jun 5, 2009 in Movies	Downloaded 0 times.
Main
Technical
Trailer
Comments Movie: Intolerance: Love's Struggle Throughout the Ages
IMDB link: 0006864
IMDB rating: 8.0 (6,583 votes) RottenTomatoes: 96% 75% Genres: Drama, Romance, History add Intolerance: Love's Struggle Throughout the Ages to bookmarks
Cast: Douglas Fairbanks, Lillian Gish, Erich Von Stroheim, Sir Herbert Beerbohm Tree, Spottiswoode Aitken, Mary Alden, Sylvia Ashton, Frank Bennett, George Beranger, Barney Bernard and others Available in versions: 720p D.W.Griffith -- Intolerance (1916) DVDRip.XviD (Size: 2.92 GB)
Intolerance.1916.DVDRip.XviD.AC3.Eng.avi
2.76 GB
Special.features.avi
160.76 MB
Special.features.pdf
1.14 MB
Description
Source: http://www.kino.com/video/item.php?film_id=144
English intertitles
Extras included
General
Format : AVI
Format/Info : Audio Video Interleave
Format profile : OpenDML
File size : 2.76 GiB
Duration : 3h 17mn
Overall bit rate : 1 997 Kbps
Writing application : VirtualDubMod 1.5.10.2 (build 2542/release)
Writing library : VirtualDubMod build 2542/release
Video
Format : MPEG-4 Visual
Format profile : Streaming Video@L1
Format settings, BVOP : Yes
Format settings, QPel : No
Format settings, GMC : No warppoints
Format settings, Matrix : Default (H.263)
Codec ID : XVID
Codec ID/Hint : XviD
Duration : 3h 17mn
Bit rate : 1 791 Kbps
Width : 608 pixels
Height : 416 pixels
Display aspect ratio : 4/3
Frame rate : 29.970 fps
Resolution : 24 bits
Colorimetry : 4:2:0
Scan type : Progressive
Bits/(Pixel*Frame) : 0.236
Stream size : 2.47 GiB (90%)
Writing library : XviD 1.2.1 (UTC 2008-12-04)
Audio
Format : AC-3
Format/Info : Audio Coding 3
Codec ID : 2000
Duration : 3h 17mn
Bit rate mode : Constant
Bit rate : 192 Kbps
Channel(s) : 2 channels
Channel positions : L R
Sampling rate : 48.0 KHz
Stream size : 272 MiB (10%)
Alignment : Split accross interleaves
Interleave, duration : 33 ms (1.00 video frame)
Interleave, preload duration : 500 ms
*********************************** FREAKYFLICKS ************************************
'If we all seed just 1:1, give at least what we take, this torrent will NEVER DIE'
Related Torrents
torrent name
size
files
age
seed
leech
2	D.W.Griffith -- Intolerance (1916) DVDRip.x264
in Movies 2.91 GB
3
5 years
0
0
INTOLERANCE-ACTE1-David-Wark-Griffith-1916-100mn-DVDRIP-HQ-english-french-intertitles-ieoia
in Movies 1.41 GB
2
5 years
0
0
Sharing Widget
Download torrent
2.92 GB
seeders:1
leechers:0
D.W.Griffith -- Intolerance (1916) DVDRip.XviD
html bbcode Trackers
refresh
tracker name
Status
checked
seeders
leechers
downloads
http://tracker.openbittorrent.com/announce
outdated
12 Jun 2012
-
-
-
µTorrent compatible trackers list
http://tracker.openbittorrent.com/announce
udp://tracker.openbittorrent.com/announce
Locations
name
ThePirateBay
TorrentReactor
isoHunt
TorrentPortal
SumoTorrent
Torrent hash: b982435da29073a7a1bf99129f2ee7afeb2b7eaf
All Comments
audio
vote 1 awful
2
3
4
5
6
7
8
9
10 best
0/10
video vote 1 awful
2
3
4
5
6
7
8
9
10 best
0/10
please, leave only comments related to that torrent
Not seeing the captcha?
Captcha *:
Post as a guest
or sign-in
Not seeing the captcha?
Captcha *:
reply
Advertising (remove)
Latest Forum Threads
What movie did you last watch? And what did you think of it? V.2!by Yaboku 2 min. ago
Quiz; Can you guess this movie? V6by kicknick 3 min. ago
Show Us Your "Draft" Idea!by AkulaClass 3 min. ago
New titles in July I'm looking forward to!by ScreamQueen 3 min. ago
Lyrical Duels :by Kosjeyr 4 min. ago
The Kickass Anime Community V.2!!!by ZombieMonarch 4 min. ago
Latest News
May'14 Updatesby KickassTorrents 1 month ago
April'14 Updatesby KickassTorrents 2 months ago
March upd.1 - Uploader rules fix and Torrents Day 2014by KickassTorrents 3 months ago
Blogroll
Question number (277)by man2014now 16 hours ago
Number 100by The.Phoenix 20 hours ago
Religion, Humanity, And The Search For Meaningby VikTSlick yesterday
Outside my Window Part 3by johnno23 yesterday
Question number (276)by man2014now yesterday
Answer - 42by suicyco 2 days ago
Goodies
Firefox search plugin
uTorrent search template
Follow us on Twitter
Kickass wallpapers
Like us on Facebook
IRC official chat
Latest Searches
hart of dixie s01e01
just now
red jumpsuit apparatus
just now
Aoe
just now
Game of Thrones S01
just now
will downing after tonight
just now
hell on wheels s03e05
just now
breaking+dawn+part+2
just now
killergram
just now
kirilenko v azarenka
just now
backroom Casting Couch
just now
Brother Bear 2=
just now
Friends Links
Torrents.to
Torrent Downloads
TorrentReactor
Torrent Finder
Select Your Language
English
Afrikaans
Basque
Bengali
Bosnian
Chinese Simplified
Croatian
Czech
Danish
Dutch
Filipino
Finnish
French
Georgian
German
Greek
Hindi
Hungarian
Indonesian
Italian
Lithuanian
Malaysian
Norwegian
Pirate
Polish
Portuguese
Romanian
Russian
Serbian
Serbian-Cyrillic
Slovak
Spanish
Swedish
Telugu
Turkish
change language
rules
idea box
Achievements
trends
Latest Searches
torrent requests about
privacy
dmca
logos
contacts
api
chat
BitCoin: 19CWNopXCHSwWtWQ89NHC471LMn2Gy5j5G
Report a bug

